<?xml version="1.0" encoding="UTF-8"?>
<svg xmlns="http://www.w3.org/2000/svg" xmlns:xlink="http://www.w3.org/1999/xlink" width="16px" height="16px" viewBox="0 0 16 16" version="1.1">
<g id="surface1">
<path style=" stroke:none;fill-rule:nonzero;fill:rgb(15.294118%,20.392157%,41.568627%);fill-opacity:1;" d="M 12.722656 1.246094 C 11.984375 0.402344 10.652344 0.0429688 8.945312 0.0429688 L 3.988281 0.0429688 C 3.640625 0.0429688 3.34375 0.296875 3.289062 0.640625 L 1.226562 13.726562 C 1.183594 13.984375 1.382812 14.21875 1.644531 14.21875 L 4.703125 14.21875 L 5.472656 9.34375 L 5.449219 9.496094 C 5.503906 9.152344 5.796875 8.898438 6.148438 8.898438 L 7.601562 8.898438 C 10.457031 8.898438 12.691406 7.738281 13.34375 4.382812 C 13.363281 4.285156 13.382812 4.1875 13.394531 4.09375 C 13.3125 4.050781 13.3125 4.050781 13.394531 4.09375 C 13.589844 2.855469 13.394531 2.007812 12.722656 1.246094 "/>
<path style=" stroke:none;fill-rule:nonzero;fill:rgb(15.294118%,20.392157%,41.568627%);fill-opacity:1;" d="M 6.644531 3.648438 C 6.726562 3.605469 6.820312 3.585938 6.910156 3.585938 L 10.796875 3.585938 C 11.253906 3.585938 11.683594 3.617188 12.078125 3.679688 C 12.1875 3.699219 12.296875 3.71875 12.402344 3.742188 C 12.558594 3.777344 12.710938 3.816406 12.859375 3.867188 C 13.050781 3.929688 13.230469 4.007812 13.394531 4.09375 C 13.589844 2.851562 13.394531 2.007812 12.722656 1.246094 C 11.984375 0.402344 10.652344 0.0429688 8.945312 0.0429688 L 3.988281 0.0429688 C 3.640625 0.0429688 3.34375 0.296875 3.289062 0.640625 L 1.226562 13.726562 C 1.183594 13.984375 1.382812 14.21875 1.644531 14.21875 L 4.703125 14.21875 L 6.296875 4.109375 C 6.332031 3.910156 6.460938 3.734375 6.644531 3.648438 Z M 6.644531 3.648438 "/>
<path style=" stroke:none;fill-rule:nonzero;fill:rgb(15.294118%,56.470588%,76.470588%);fill-opacity:1;" d="M 13.34375 4.382812 C 12.691406 7.738281 10.457031 8.898438 7.601562 8.898438 L 6.148438 8.898438 C 5.796875 8.898438 5.503906 9.152344 5.449219 9.496094 L 4.492188 15.554688 C 4.457031 15.78125 4.632812 15.988281 4.859375 15.988281 L 7.441406 15.988281 C 7.746094 15.988281 8.003906 15.765625 8.050781 15.464844 L 8.078125 15.332031 L 8.5625 12.25 L 8.59375 12.082031 C 8.640625 11.78125 8.902344 11.558594 9.207031 11.558594 L 9.59375 11.558594 C 12.089844 11.558594 14.046875 10.542969 14.617188 7.609375 C 14.855469 6.382812 14.734375 5.359375 14.101562 4.636719 C 13.910156 4.421875 13.671875 4.242188 13.394531 4.09375 C 13.382812 4.1875 13.363281 4.285156 13.34375 4.382812 Z M 13.34375 4.382812 "/>
<path style=" stroke:none;fill-rule:nonzero;fill:rgb(12.156863%,14.901961%,30.980392%);fill-opacity:1;" d="M 12.710938 3.820312 C 12.609375 3.792969 12.507812 3.765625 12.40625 3.742188 C 12.296875 3.71875 12.1875 3.699219 12.078125 3.679688 C 11.683594 3.617188 11.257812 3.585938 10.796875 3.585938 L 6.910156 3.585938 C 6.820312 3.585938 6.726562 3.605469 6.644531 3.648438 C 6.460938 3.734375 6.332031 3.910156 6.300781 4.109375 L 5.472656 9.34375 L 5.449219 9.496094 C 5.503906 9.152344 5.796875 8.898438 6.148438 8.898438 L 7.601562 8.898438 C 10.457031 8.898438 12.691406 7.738281 13.347656 4.382812 C 13.367188 4.285156 13.382812 4.1875 13.398438 4.09375 C 13.230469 4.007812 13.050781 3.929688 12.859375 3.867188 C 12.8125 3.851562 12.761719 3.835938 12.710938 3.820312 "/>
</g>
</svg>
