<?xml version="1.0" encoding="UTF-8" standalone="no"?>
<!-- Created with Inkscape (http://www.inkscape.org/) -->

<svg
   version="1.1"
   id="svg23121"
   width="511.99997"
   height="225"
   viewBox="0 0 511.99999 225"
   sodipodi:docname="DALL·цццE 2023-02-02 18.06.02.png"
   inkscape:export-filename="DALL·цццE 2023-02-022323 18.06.02.svg"
   inkscape:export-xdpi="96"
   inkscape:export-ydpi="96"
   xmlns:inkscape="http://www.inkscape.org/namespaces/inkscape"
   xmlns:sodipodi="http://sodipodi.sourceforge.net/DTD/sodipodi-0.dtd"
   xmlns:xlink="http://www.w3.org/1999/xlink"
   xmlns="http://www.w3.org/2000/svg"
   xmlns:svg="http://www.w3.org/2000/svg">
  <defs
     id="defs23125">
    <linearGradient
       inkscape:collect="always"
       id="linearGradient25978">
      <stop
         style="stop-color:#bef2ff;stop-opacity:1;"
         offset="0"
         id="stop25974" />
      <stop
         style="stop-color:#86b2ff;stop-opacity:1;"
         offset="0.5"
         id="stop27434" />
      <stop
         style="stop-color:#8165ff;stop-opacity:1;"
         offset="1"
         id="stop25976" />
    </linearGradient>
    <linearGradient
       inkscape:collect="always"
       xlink:href="#linearGradient25978"
       id="linearGradient25980"
       x1="86.905334"
       y1="428.37723"
       x2="747.80072"
       y2="953.05298"
       gradientUnits="userSpaceOnUse"
       gradientTransform="matrix(0.41052878,0,0,0.41052878,-29.677129,-171.05846)" />
  </defs>
  <sodipodi:namedview
     id="namedview23123"
     pagecolor="#ffffff"
     bordercolor="#000000"
     borderopacity="0.25"
     inkscape:showpageshadow="2"
     inkscape:pageopacity="0.0"
     inkscape:pagecheckerboard="0"
     inkscape:deskcolor="#d1d1d1"
     showgrid="false" />
  <g
     inkscape:groupmode="layer"
     inkscape:label="Image"
     id="g23127">
    <path
       style="fill:url(#linearGradient25980);fill-opacity:1;stroke:none;stroke-width:0.547355"
       d="M 86.365668,80.732466 C 84.003791,73.771196 75.89882,67.121166 71.110449,61.574126 60.17453,48.905106 50.091317,35.468266 39.100667,22.867766 34.385608,17.461356 29.436829,8.6612555 22.323215,6.2736655 10.530078,2.3150355 6,23.225226 6,30.921806 c 0,22.43455 15.738646,41.82564 29.101029,58.33668 4.311618,5.32688 8.791275,10.53403 13.447261,15.558484 1.2037,1.29834 4.844768,4.30678 4.547004,6.2532 -0.298313,1.94919 -3.183994,3.88298 -4.449034,5.24161 -4.152933,4.45948 -8.286614,9.03426 -12.200927,13.70564 -13.77042,16.43532 -29.0512212,36.8637 -30.0175498,59.0948 -0.3229785,7.43263 -0.00878,16.23825 4.7747848,22.43999 8.375756,10.8583 15.877236,3.46166 22.427078,-4.60893 12.805805,-15.77949 25.69207,-31.49631 38.747903,-47.07383 3.612657,-4.31056 7.1728,-8.66496 10.868062,-12.90704 1.084912,-1.24528 2.830996,-3.67518 4.762222,-3.16885 2.948677,0.77298 6.421145,5.34398 8.757903,7.31792 6.612764,5.58417 13.755574,10.50515 20.800174,15.51678 18.5455,13.19398 39.19729,23.65141 60.21084,32.25713 83.69644,34.27602 180.74049,26.51586 258.9068,-18.2975 19.22917,-11.02393 36.41059,-25.0362 52.00251,-40.73978 6.09497,-6.13811 14.67827,-13.10685 16.69263,-21.89426 3.43914,-15.0035 -8.08085,-25.307264 -17.78962,-35.031704 -22.19868,-22.2344 -48.24148,-40.39349 -77.17927,-52.77826 -80.21249,-34.3294305 -169.91526,-33.9064305 -249.60155,2.04331 -27.31995,12.32472 -51.31783,29.77717 -74.442582,48.54527 M 327.20928,51.721956 c -3.14735,6.7326 -7.51993,12.88673 -10.55885,19.70534 -9.81284,22.01791 -13.89115,44.003574 -6.00195,67.326684 4.1125,12.15664 12.60714,22.23196 17.10818,33.93694 -6.55426,0.13533 -13.14677,1.69136 -19.70543,2.14077 -13.11239,0.89774 -26.32913,0.65905 -39.41084,-0.59165 -38.42318,-3.67333 -76.66865,-15.73691 -110.02158,-35.17127 -13.27991,-7.73836 -24.61537,-17.97748 -37.22135,-26.58874 2.19823,-4.70134 8.42951,-8.27671 12.59004,-11.26422 10.54895,-7.575214 21.24075,-15.084644 32.84172,-20.985314 35.61812,-18.11559 75.53034,-28.92682 115.49557,-30.67678 15.17584,-0.66456 29.86832,1.85839 44.88449,2.16824 m 48.26393,12.94204 c 3.94269,-1.4123 12.53871,3.88237 16.32586,5.2958 17.19565,6.41942 33.13513,16.45616 47.52828,27.72202 3.97118,3.108044 7.72066,6.483764 11.58782,9.715904 1.15392,0.96403 3.71834,2.29567 3.71834,4.03683 0,1.85835 -2.51405,3.7019 -3.71834,4.85572 -4.13922,3.9664 -8.50547,7.89864 -13.13692,11.28423 -18.15569,13.2709 -37.93835,25.57918 -59.66345,32.2757 -3.63078,1.11948 -4.96466,-2.20982 -6.84378,-4.67504 -4.54048,-5.95537 -9.02235,-11.91406 -12.44831,-18.6106 -3.37625,-6.60076 -7.72068,-13.82184 -8.52869,-21.34752 -1.25514,-11.68436 7.36882,-24.962934 13.15282,-34.484574 2.46162,-4.05222 7.42948,-14.42253 12.02637,-16.06847 m 16.32586,27.2699 c -26.22672,4.63585 -18.64451,45.743874 7.66329,41.009104 27.4096,-4.93278 19.48303,-45.807914 -7.66329,-41.009104 z"
       id="path25469" />
  </g>
</svg>
